<svg xmlns="http://www.w3.org/2000/svg" xmlns:xlink="http://www.w3.org/1999/xlink" version="1.1" x="0px" y="0px" viewBox="0 0 68 85" style="enable-background:new 0 0 68 68;" xml:space="preserve"><g fill="#6b6a5e"><g><g><g><g><path  d="M25.7290039,55.1416702c-0.1992188,0-0.3955078-0.0595703-0.5625-0.1728516l-5.777832-3.9287109       c-0.4560547-0.3105469-0.574707-0.9316406-0.2651367-1.3876953l3.5717773-5.2705078       c0.1245117-0.1845703,0.3066406-0.3212891,0.5180664-0.390625l5.4404297-1.7705078       c0.2944336-0.0927734,0.6176758-0.0488281,0.8730469,0.125c0.2558594,0.1748047,0.4165039,0.4580078,0.4345703,0.7666016       l0.3374023,5.6982422c0.0131836,0.2207031-0.046875,0.4384766-0.1704102,0.6201172l-3.5717773,5.2714844       c-0.1489258,0.2197266-0.3789063,0.3720703-0.6396484,0.421875       C25.8544922,55.1358109,25.7915039,55.1416702,25.7290039,55.1416702z M21.3393555,49.9473343l4.1235352,2.8037109       l2.8193359-4.1611328l-0.2407227-4.0664063l-3.8833008,1.2636719L21.3393555,49.9473343z"/></g><g><g><path d="M28.9633789,44.1719437c-0.1928711,0-0.3881836-0.0556641-0.5600586-0.171875        c-0.4570313-0.3105469-0.5766602-0.9316406-0.2666016-1.3886719l21.1933594-31.2744141        c0.3095703-0.4580078,0.9311523-0.5771484,1.3886719-0.2675781c0.4570313,0.3105469,0.5766602,0.9316406,0.2666016,1.3886719        L29.7919922,43.7324905C29.5986328,44.0186234,29.2841797,44.1719437,28.9633789,44.1719437z"/></g><g><path d="M53.0229492,14.8467474c-0.1933594,0-0.3891602-0.0556641-0.5615234-0.1728516l-5.7319336-3.8974609        c-0.456543-0.3105469-0.5751953-0.9326172-0.2646484-1.3896484c0.3115234-0.4560547,0.9326172-0.5751953,1.3896484-0.2646484        l5.7319336,3.8974609c0.456543,0.3105469,0.5751953,0.9326172,0.2646484,1.3896484        C53.6572266,14.6934271,53.3427734,14.8467474,53.0229492,14.8467474z"/></g></g></g></g></g><g><g><g><path d="M57.9970703,42.0488968c-2.293457,0-3.4873047-0.7636719-4.5405273-1.4375      c-0.9418945-0.6015625-1.7548828-1.1220703-3.4638672-1.1220703c-1.7070313,0-2.5195313,0.5195313-3.4604492,1.1220703      c-1.0527344,0.6738281-2.246582,1.4375-4.5390625,1.4375c-2.2929688,0-3.4868164-0.7636719-4.5400391-1.4375      c-0.940918-0.6025391-1.7539063-1.1220703-3.4614258-1.1220703c-1.7070313,0-2.5195313,0.5195313-3.4604492,1.1220703      c-1.0527344,0.6738281-2.2460938,1.4375-4.5385742,1.4375c-2.2919922,0-3.4848633-0.7636719-4.5375977-1.4375      c-0.9404297-0.6025391-1.7529297-1.1220703-3.4594727-1.1220703s-2.519043,0.5195313-3.4594727,1.1220703      c-1.0527344,0.6738281-2.2456055,1.4375-4.5371094,1.4375c-2.2919922,0-3.4848633-0.7636719-4.5375977-1.4375      c-0.9404297-0.6025391-1.7529297-1.1220703-3.4594727-1.1220703c-0.5522461,0-1-0.4472656-1-1s0.4477539-1,1-1      c2.2919922,0,3.4848633,0.7636719,4.5375977,1.4375c0.9404297,0.6025391,1.7529297,1.1220703,3.4594727,1.1220703      c1.7060547,0,2.5185547-0.5195313,3.4589844-1.1220703c1.0527344-0.6738281,2.2456055-1.4375,4.5375977-1.4375      s3.4848633,0.7636719,4.5375977,1.4375c0.9404297,0.6025391,1.7529297,1.1220703,3.4594727,1.1220703      c1.7070313,0,2.5195313-0.5195313,3.4604492-1.1220703c1.0527344-0.6738281,2.2460938-1.4375,4.5385742-1.4375      s3.4863281,0.7636719,4.5395508,1.4375c0.940918,0.6015625,1.7539063,1.1220703,3.4619141,1.1220703      c1.7075195,0,2.5200195-0.5195313,3.4609375-1.1220703c1.0527344-0.6738281,2.2460938-1.4375,4.5385742-1.4375      c2.2939453,0,3.487793,0.7636719,4.5410156,1.4375c0.9418945,0.6015625,1.7548828,1.1220703,3.4633789,1.1220703      c1.7089844,0,2.5219727-0.5205078,3.4638672-1.1220703c1.0532227-0.6738281,2.2475586-1.4375,4.5410156-1.4375      c0.5522461,0,1,0.4472656,1,1s-0.4477539,1-1,1c-1.7089844,0-2.5219727,0.5205078-3.4638672,1.1220703      C61.4848633,41.2852249,60.2905273,42.0488968,57.9970703,42.0488968z"/></g></g><g><g><path d="M57.9980469,47.7197952c-2.2910156,0-3.4848633-0.7626953-4.5380859-1.4365234      c-0.9433594-0.6035156-1.7583008-1.1240234-3.472168-1.1240234c-1.7006836,0-2.5112305,0.5195313-3.449707,1.1210938      c-1.0527344,0.6748047-2.2456055,1.4394531-4.5400391,1.4394531c-2.2988281,0-3.4946289-0.7646484-4.5493164-1.4394531      c-0.9414063-0.6015625-1.7543945-1.1210938-3.4609375-1.1210938c-1.703125,0-2.5141602,0.5175781-3.453125,1.1171875      c-0.3017578,0.1923828-0.6035156,0.3847656-0.9291992,0.5615234c-0.4863281,0.2626953-1.0927734,0.0839844-1.355957-0.4013672      c-0.2641602-0.4853516-0.0844727-1.0927734,0.4008789-1.3564453c0.2832031-0.1533203,0.5454102-0.3222656,0.8081055-0.4892578      c1.0507813-0.6708984,2.2421875-1.4316406,4.5292969-1.4316406c2.2910156,0,3.4848633,0.7626953,4.5380859,1.4365234      c0.9433594,0.6035156,1.7583008,1.1240234,3.472168,1.1240234c1.7084961,0,2.5205078-0.5205078,3.4609375-1.1230469      c1.0512695-0.6738281,2.2421875-1.4375,4.5288086-1.4375c2.2988281,0,3.4946289,0.7646484,4.5493164,1.4394531      c0.9414063,0.6015625,1.7543945,1.1210938,3.4609375,1.1210938c1.7075195,0,2.5200195-0.5205078,3.4609375-1.1220703      c1.0527344-0.6748047,2.246582-1.4384766,4.5390625-1.4384766c0.5522461,0,1,0.4472656,1,1s-0.4477539,1-1,1      c-1.7075195,0-2.5200195,0.5205078-3.4609375,1.1220703C61.484375,46.9561234,60.2905273,47.7197952,57.9980469,47.7197952z"/></g><g><path d="M9.9980469,47.7197952c-2.2924805,0-3.4863281-0.7636719-4.5390625-1.4384766      c-0.940918-0.6015625-1.753418-1.1220703-3.4609375-1.1220703c-0.5522461,0-1-0.4472656-1-1s0.4477539-1,1-1      c2.2924805,0,3.4863281,0.7636719,4.5390625,1.4384766c0.940918,0.6015625,1.753418,1.1220703,3.4609375,1.1220703      s2.5200195-0.5205078,3.4609375-1.1220703c1.0527344-0.6748047,2.246582-1.4384766,4.5390625-1.4384766      c2.2880859,0,3.4780273,0.7607422,4.527832,1.4316406c0.2578125,0.1640625,0.5146484,0.3291016,0.7919922,0.4814453      c0.4848633,0.2646484,0.6625977,0.8730469,0.3969727,1.3574219c-0.2646484,0.484375-0.871582,0.6630859-1.3569336,0.3964844      c-0.3178711-0.1738281-0.6137695-0.3623047-0.9091797-0.5507813c-0.9375-0.5986328-1.7470703-1.1162109-3.4506836-1.1162109      c-1.7075195,0-2.5200195,0.5205078-3.4609375,1.1220703C13.484375,46.9561234,12.2905273,47.7197952,9.9980469,47.7197952z"/></g></g><g><g><path d="M57.9980469,53.3789749c-2.2910156,0-3.4848633-0.7626953-4.5380859-1.4355469      c-0.9433594-0.6035156-1.7578125-1.1240234-3.472168-1.1240234c-1.7006836,0-2.5112305,0.5195313-3.449707,1.1201172      c-1.0527344,0.6748047-2.2460938,1.4394531-4.5400391,1.4394531c-2.2988281,0-3.4946289-0.7646484-4.5493164-1.4384766      c-0.9414063-0.6015625-1.7543945-1.1210938-3.4609375-1.1210938c-1.7099609,0-2.5229492,0.5214844-3.4638672,1.125      c-0.8608398,0.5517578-1.8369141,1.1777344-3.4428711,1.3769531c-0.5405273,0.0732422-1.0473633-0.3203125-1.1152344-0.8691406      c-0.0683594-0.5478516,0.3208008-1.0478516,0.8691406-1.1152344c1.1547852-0.1435547,1.8286133-0.5761719,2.609375-1.0761719      c1.0532227-0.6757813,2.2470703-1.4414063,4.543457-1.4414063c2.2910156,0,3.4848633,0.7626953,4.5380859,1.4355469      c0.9433594,0.6035156,1.7578125,1.1240234,3.472168,1.1240234c1.7084961,0,2.5205078-0.5205078,3.4609375-1.1230469      c1.0512695-0.6728516,2.2421875-1.4365234,4.5288086-1.4365234c2.2988281,0,3.4946289,0.7646484,4.5493164,1.4384766      c0.9414063,0.6015625,1.7543945,1.1210938,3.4609375,1.1210938c1.7075195,0,2.5200195-0.5195313,3.4609375-1.1220703      c1.0532227-0.6738281,2.246582-1.4375,4.5390625-1.4375c0.5522461,0,1,0.4472656,1,1s-0.4477539,1-1,1      c-1.7075195,0-2.5200195,0.5195313-3.4609375,1.1220703C61.4838867,52.615303,60.2905273,53.3789749,57.9980469,53.3789749z"/></g><g><path d="M9.9980469,53.3789749c-2.2924805,0-3.4858398-0.7636719-4.5390625-1.4375      c-0.940918-0.6025391-1.753418-1.1220703-3.4609375-1.1220703c-0.5522461,0-1-0.4472656-1-1s0.4477539-1,1-1      c2.2924805,0,3.4858398,0.7636719,4.5390625,1.4375c0.940918,0.6025391,1.753418,1.1220703,3.4609375,1.1220703      s2.5200195-0.5195313,3.4609375-1.1220703c1.0532227-0.6738281,2.246582-1.4375,4.5390625-1.4375      c0.8500977,0,1.6074219,0.1064453,2.3149414,0.3251953c0.5273438,0.1630859,0.8232422,0.7226563,0.6601563,1.25      c-0.1635742,0.5283203-0.7241211,0.8212891-1.2509766,0.6601563c-0.5131836-0.1582031-1.0771484-0.2353516-1.7241211-0.2353516      c-1.7075195,0-2.5200195,0.5195313-3.4609375,1.1220703C13.4838867,52.615303,12.2905273,53.3789749,9.9980469,53.3789749z"/></g></g><g><g><path d="M57.9970703,59.0508499c-2.293457,0-3.4873047-0.7636719-4.5410156-1.4375      c-0.9414063-0.6025391-1.7543945-1.1230469-3.4633789-1.1230469c-1.7070313,0-2.5195313,0.5205078-3.4604492,1.1220703      c-1.0527344,0.6748047-2.2460938,1.4384766-4.5390625,1.4384766s-3.4868164-0.7636719-4.5400391-1.4384766      c-0.940918-0.6015625-1.7539063-1.1220703-3.4614258-1.1220703c-1.7070313,0-2.5195313,0.5205078-3.4604492,1.1220703      c-1.0527344,0.6748047-2.2460938,1.4384766-4.5385742,1.4384766c-2.2919922,0-3.4853516-0.7636719-4.5375977-1.4384766      c-0.940918-0.6015625-1.7529297-1.1220703-3.4594727-1.1220703s-2.5185547,0.5205078-3.4594727,1.1220703      c-1.0522461,0.6748047-2.2456055,1.4384766-4.5371094,1.4384766c-2.2919922,0-3.4853516-0.7636719-4.5375977-1.4384766      c-0.940918-0.6015625-1.7529297-1.1220703-3.4594727-1.1220703c-0.5522461,0-1-0.4472656-1-1s0.4477539-1,1-1      c2.2919922,0,3.4853516,0.7636719,4.5375977,1.4384766c0.940918,0.6015625,1.7529297,1.1220703,3.4594727,1.1220703      c1.7060547,0,2.5185547-0.5205078,3.4584961-1.1220703c1.0527344-0.6748047,2.2460938-1.4384766,4.5380859-1.4384766      s3.4853516,0.7636719,4.5375977,1.4384766c0.940918,0.6015625,1.7529297,1.1220703,3.4594727,1.1220703      c1.7070313,0,2.5195313-0.5205078,3.4604492-1.1220703c1.0527344-0.6748047,2.2460938-1.4384766,4.5385742-1.4384766      c2.2929688,0,3.4863281,0.7636719,4.5395508,1.4375c0.940918,0.6025391,1.7539063,1.1230469,3.4619141,1.1230469      c1.7075195,0,2.5200195-0.5205078,3.4609375-1.1220703c1.0527344-0.6748047,2.2460938-1.4384766,4.5385742-1.4384766      c2.2939453,0,3.487793,0.7636719,4.5415039,1.4375c0.9414063,0.6025391,1.7543945,1.1230469,3.4628906,1.1230469      s2.5219727-0.5205078,3.4633789-1.1230469c1.0537109-0.6738281,2.2475586-1.4375,4.5415039-1.4375c0.5522461,0,1,0.4472656,1,1      s-0.4477539,1-1,1c-1.7084961,0-2.5219727,0.5205078-3.4633789,1.1230469      C61.4848633,58.287178,60.2910156,59.0508499,57.9970703,59.0508499z"/></g></g></g><g><g><path d="M12.4677734,41.6094437c-0.0004883,0-0.0009766,0-0.0014648,0     C6.1425781,41.5987015,0.9980469,36.4258499,0.9980469,30.0791683c0-5.0009766,3.3144531-9.4990234,8.0595703-10.9365234     c0.3671875-0.1123047,0.7631836-0.0029297,1.0234375,0.2773438c0.2597656,0.2802734,0.3374023,0.6845703,0.1992188,1.0410156     c-0.8530273,2.2001953-0.5649414,4.5976563,0.7905273,6.5771484c1.3686523,1.9980469,3.6220703,3.1914063,6.0268555,3.1914063     h33.8100586c2.4052734,0,4.6582031-1.1933594,6.0273438-3.1923828c1.3554688-1.9785156,1.6430664-4.3759766,0.7900391-6.5761719     c-0.1381836-0.3574219-0.0605469-0.7626953,0.2006836-1.0429688c0.2612305-0.28125,0.6577148-0.3867188,1.0263672-0.2744141     c4.7373047,1.4589844,8.0458984,5.9560547,8.0458984,10.9355469c0,6.3574238-5.1455078,11.5302753-11.4702148,11.5302753     c-0.5522461,0-1-0.4472656-1-1s0.4477539-1,1-1c5.2216797,0,9.4702148-4.2753906,9.4702148-9.5302753     c0-3.4580078-1.9306641-6.6328125-4.8701172-8.2695313c0.3017578,2.2011719-0.2260742,4.4345703-1.5429688,6.3574219     c-1.7416992,2.5439453-4.6118164,4.0625019-7.6772461,4.0625019H17.0976563     c-3.0654297,0-5.9350586-1.5185566-7.6767578-4.0615253c-1.3188477-1.9257813-1.8466797-4.1640625-1.5419922-6.3691406     c-2.9453125,1.625-4.8808594,4.8046875-4.8808594,8.2802734c0,5.2460957,4.2490234,9.5214863,9.4711914,9.5302753     c0.5527344,0.0009766,0.9995117,0.4492188,0.9985352,1.0019531     C13.4667969,41.1631546,13.019043,41.6094437,12.4677734,41.6094437z"/></g></g></g>
</svg>