<svg xmlns="http://www.w3.org/2000/svg" xmlns:xlink="http://www.w3.org/1999/xlink" version="1.1" x="0px" y="0px" viewBox="0 0 100 125" enable-background="new 0 0 100 100" xml:space="preserve"><path fill="#6b6a5e" stroke="#6b6a5e"  d="M94.5,82.4c0.2-0.2,0.3-0.4,0.4-0.6c0,0,0-0.1,0-0.1c0,0,0,0,0-0.1c0.1-0.2,0.1-0.4,0.1-0.5c-0.1-0.5-0.4-0.8-0.5-0.9  l-14-13.6c-0.1-1.2-0.7-2.6-1.9-3.6c-0.8-0.7-1.7-1.5-2.3-2c-4.5-7.8-9.1-9.6-9.7-9.8c-0.4-0.4-3.6-3.9-6-6.2  c-2.4-2.2-3.5-2.9-3.7-3l-0.8-1.1c0-0.9,0.1-2.3,0.2-3.8c0.1-2.4,0.3-5.2,0.2-6.9c0-0.1,0-0.3,0-0.4c0.6-0.1,2.4-0.4,4.9,0  c0.4,0.2,3.4,1.7,6.6,2.6c0.1,0.4,0.6,1.4,1.9,2.1c0.3,0.4,0.7,0.6,1.2,0.6c0.7,0,1.3-0.5,1.5-1.1c0,0,0.1,0,0.1-0.1  c0.8-0.7,1-1.8,0.6-2.9c-0.3-0.7-0.8-1.3-1.4-1.6c0,0,0,0,0,0l-0.2-5.7c0,0,0,0,0-0.1l-0.3-9.9c0,0,0,0,0.1,0  c0.3-0.2,0.4-0.5,0.4-0.9c0-0.4-0.3-0.8-0.6-1l-0.4-2c0-0.1-0.1-0.2-0.2-0.2c-0.1,0-0.2,0.1-0.2,0.2l-0.3,2.1  c-0.3,0.2-0.5,0.5-0.5,0.9c0,0.3,0.2,0.6,0.4,0.9c0,0,0,0,0.1,0c0,1.8,0.1,6.1,0.2,10v4.8c-1.5-1.3-5-3.9-7.6-4.3  c-2.5-0.4-4.5-0.5-5.5-0.4c0.3-0.3,0.5-0.6,0.7-1c1.2-0.3,1.4-3.2,1.5-3.3v-0.6c0.5-0.2,0.8-0.4,0.9-0.6c0.1-0.4-0.3-0.7-0.6-0.9  c0.2-1.5-0.2-3.1-1.3-4.2c-0.5-0.5-1.1-1.1-1.8-1.6c-1-0.7-2.1-1.2-3.3-1.4c-0.1,0-0.1,0-0.1,0c0,0-0.1,0-0.1,0  c-0.7-0.1-1.4-0.1-2.1,0c0,0,0,0,0,0c0,0-0.1,0-0.1,0c-0.3,0-0.6,0.1-0.9,0.2c-2,0.6-3.5,1.8-4.2,3.6c0,0-0.3,0.5-0.5,1.2  c-0.1,0-0.2,0-0.2,0.1c-0.7,1.4-0.1,2.6,0,2.8c0,0,0,0,0,0.1c0,0.3,0.1,1.2,0.3,1.9c0.1,0.2,0.1,0.4,0.2,0.5  c-0.5,0.2-1.6,0.9-2.8,2.4c-0.1,0.2-0.2,0.3-0.4,0.4c-1.3,1.6-2.2,2.7-0.3,4.4c0.7,0.6,1.3,0.8,2,0.8c0.7,0,1.4-0.2,2-0.4  c0.8-0.2,1.7-0.4,2.5-0.4c1.3,0.1,2.1,0.1,2.6,0c0.1,0.4,0.2,1.5,0.1,4.8c-0.1,1.4-0.1,2.6-0.2,3.6c-0.2,2.1-0.3,3.4,0.1,4.7  c0.4,1.5,0.4,2.8,0.5,3.3c-0.3,0.1-0.5,0.1-0.8,0.2c-2.8,0.6-7,1.4-9,0c0-0.7-0.2-4.1-0.4-7.4c0,0,0-0.1,0-0.1c0.8-0.5,1.6-1,2-1.4  c1.2-1,1.7-3.7,1.1-5.6c-0.7-1.9-3.1-2.2-3.2-2.3c0,0-0.1,0-0.1,0c-0.3,0.1-7.2,3.7-8.6,8.6c-1.3,4.7-1,9.9-0.9,10.4c0,0,0,0,0,0.1  l-8.5-2.5c0,0,0,0,0,0c0,0,0,0,0,0L9.3,40.7c0,0,0,0,0-0.1c-0.1-0.4-0.4-0.8-0.8-0.9c-0.3-0.1-0.7-0.1-1,0.1c-0.1,0-0.2,0.1-0.2,0.2  h-2C5.1,40,5,40,5,40.1c0,0.1,0,0.2,0.1,0.3l1.6,0.9c0,0,0,0,0.1,0c0.1,0.4,0.4,0.7,0.8,0.9c0.1,0,0.3,0.1,0.4,0.1  c0.3,0,0.5-0.1,0.7-0.2c0,0,0,0,0,0l13.4,4.2c0,0,0,0,0,0L31,49c0.1,0.9,0.4,1.6,1,2c0.5,0.4,1.1,0.5,1.7,0.5c0.6,0,1.2-0.2,1.7-0.5  c0.5-0.3,0.8-0.8,1-1.3c0.2-1.2-0.6-2.5-0.8-2.9c0.6-1.9,2.1-6.9,2.3-7.6c0.3-0.2,1.7-1,3-1.9c0.2,3.5,0.4,7.1,0.4,7.3  c-0.2,1.6,0.1,4,1.7,5.4c2.8,2.4,11.1,5.9,12.1,6.4c0.4,1,3.7,8.9,5.5,10.9c0.8,0.8,1.5,1.1,2.2,1.2c0.1,0.5,0.5,2.1,1.3,3.3  c0.5,0.7,1,1.5,1.8,1.9c0.5,0.8,7.4,11.5,10.1,15.9c0,0,0,0,0,0l0,0c0,0,0,0,0,0c0,0,0,0,0,0c0,0,0,0,0,0c0,0,0,0,0,0  c0.4,0.6,0.9,0.7,1.2,0.7c0.5,0,0.9-0.3,0.9-0.3l2.9-1.9c0,0,0,0,0,0l0,0c0,0,0,0,0,0c0.2-0.1,0.4-0.3,0.5-0.6c0,0,0-0.1,0-0.1  c0,0,0,0,0-0.1c0.1-0.2,0.1-0.3,0.1-0.5c0-0.5-0.3-0.9-0.4-0.9L69.9,71c0-1.1-0.3-2.2-0.7-2.8c-0.4-0.6-1-1.5-1.5-2.2c0,0,0,0,0,0  c0.4-1-0.3-2.6-0.4-2.6c-0.1-0.1-0.4-1.1-1-2.4c4.4,3.8,5.7,4.4,6.3,4.4c0.1,0,0.6,0.3,1.7,1.8c0.7,1,1.6,2.1,2.7,2.7  c0,0,0,0.1,0,0.1c0.1,0.1,9.3,10.6,12.8,14.7c0,0,0,0,0,0l0,0c0,0,0,0,0,0c0,0,0,0,0,0c0.3,0.4,0.7,0.6,1.1,0.6c0.6,0,1-0.5,1.1-0.5  L94.5,82.4C94.5,82.4,94.5,82.4,94.5,82.4L94.5,82.4C94.5,82.4,94.5,82.4,94.5,82.4z M31,48.5l-8.6-2.7c0-0.2,0-0.7,0.3-0.8l8.4,2.4  C31,47.8,31,48.1,31,48.5z M8.3,41.4c-0.1,0-0.1-0.1-0.2-0.2c0-0.1,0-0.2,0-0.2c0.1-0.1,0.2-0.1,0.2-0.1l13.8,3.9  C22,45.1,22,45.4,22,45.6L8.3,41.4z M6.1,40.4h0.8c0,0,0,0.1-0.1,0.1c0,0.1,0,0.2-0.1,0.2L6.1,40.4z M7.8,41.8  c-0.4-0.1-0.6-0.6-0.5-1.1c0-0.1,0.1-0.3,0.2-0.4c0,0,0,0,0,0c0.1-0.1,0.1-0.1,0.2-0.1c0.2-0.1,0.4-0.1,0.6-0.1  c0.2,0.1,0.3,0.2,0.4,0.3l-0.2,0c-0.3-0.1-0.6,0-0.7,0.2c-0.1,0.2-0.2,0.4-0.1,0.6c0.1,0.2,0.2,0.4,0.4,0.5  C8,41.8,7.9,41.8,7.8,41.8z M35.9,49.6c-0.1,0.4-0.3,0.8-0.7,1c-0.9,0.6-2.1,0.6-2.8,0c-0.8-0.6-1-1.8-0.7-3.3c0,0,0,0,0-0.1  c0,0,0-0.1,0-0.1c0,0,0-0.1,0-0.1c0.4-0.1,0.9-0.2,1.5-0.2c0.9,0,1.7,0.1,1.9,0.2C35.3,47.4,36,48.6,35.9,49.6z M37.4,38.9  c0,0-0.1,0.1-0.1,0.1c0,0.1-1.6,5.4-2.3,7.6c-0.3-0.1-1.1-0.2-1.9-0.2c-0.5,0-1,0-1.4,0.1c-0.1-1.2-0.2-5.8,0.9-10  c1.3-4.5,7.6-7.9,8.3-8.3c0.4,0.1,2.2,0.5,2.8,1.9c0.6,1.7,0.2,4.2-0.9,5.1C41.6,36.3,37.5,38.9,37.4,38.9z M94.5,81.6  C94.5,81.6,94.5,81.6,94.5,81.6c-0.1,0.2-0.2,0.4-0.3,0.5l-2.5,2.3c-0.2,0.2-0.5,0.3-0.8,0.3c-0.2,0-0.4-0.1-0.5-0.2  c0.1-0.1,0.1-0.3,0.1-0.4c0.2-0.9,1.3-1.7,2.3-2.5l0.2-0.1c0.4-0.3,0.7-0.4,1.1-0.5c0.1,0,0.3-0.1,0.4-0.1c0,0,0.1,0,0.1-0.1  c0.1,0.2,0.1,0.3,0.1,0.5C94.5,81.4,94.5,81.5,94.5,81.6C94.5,81.6,94.5,81.6,94.5,81.6z M80.4,68.4l2,2.1c0.2,0.2,0.2,0.4,0,0.6  l-1.1,1.2c-0.1,0.1-0.2,0.1-0.3,0.1c-0.1,0-0.2-0.1-0.3-0.1l-1.9-2.1c0.1,0,0.2-0.1,0.4-0.1C79.8,69.8,80.2,69.2,80.4,68.4z   M56.5,42.2c-0.1,0.8-2.1,1.6-3.6,1.9c0-0.5-0.2-1.8-0.5-3c-0.3-1.3-0.1-5,0-7.2c0-0.5,0.1-1,0.1-1.3c0.1-2.1-0.1-4.9-0.1-4.9  c0,0,0,0,0,0c0.8-0.2,2-0.6,2.7-1.2c0.4,0.9,0.9,2.3,0.9,3.8c0.1,1.7-0.1,4.4-0.2,6.8c-0.1,1.6-0.2,3-0.2,3.9c0,0.1,0,0.1,0,0.1  L56.5,42.2z M51.8,26.9c-0.2-0.7-0.6-1.7-1.5-2l-1.6-1c0.3-0.1,0.6-0.2,0.9-0.5c0.4-0.4,0.7-1,0.9-1.8c0.4,0.1,0.6,0.1,0.8,0.1  c0.1,0.3,0.4,0.6,0.7,0.7c1.2,0.5,2.6,0.8,4-0.8c0,0,0.1-0.1,0.2-0.1c0.1,0,0.1,0.1,0.2,0.1c0.1,0.1,0.2,0.3,0.2,0.5  c0.1,0.3,0.2,0.6,0.6,0.7c-0.9,1.2-2.2,2.1-3.5,2.4c-0.2,0-0.7,0.1-0.9,0.1c-0.1,0-0.2,0.1-0.2,0.1l-0.4,0.9L51.8,26.9z M45.5,19.9  c-0.1-0.4-0.2-0.8-0.2-1.2c1.6,1.7,3.4,2.4,4.7,2.7c-0.2,0.7-0.4,1.2-0.8,1.5c-0.5,0.5-1.3,0.5-1.8,0.1C46.8,22.6,46,21.7,45.5,19.9  z M45,15.9c0.6,0.7,2.1,2.3,5.6,3.2l0.4,0.1c0,0.1,0,0.3,0,0.5l0,0.1c0,0-0.1,0.7,0,1.4c-1-0.1-3.8-0.7-5.9-3.3  C45.2,17.9,44.7,17,45,15.9z M54.8,26c-0.6,0.6-2,1.1-2.7,1.3l0.4-0.7c0,0,0,0,0,0c0,0,0,0,0,0l0.3-0.8c0.3,0,0.6-0.1,0.8-0.1  c0.3-0.1,0.6-0.1,0.8-0.2C54.6,25.5,54.7,25.7,54.8,26z M71,34.6c-0.6,0-1.1-0.5-1.1-1.1s0.5-1.1,1.1-1.1s1.1,0.5,1.1,1.1  S71.6,34.6,71,34.6z M72.7,31.2c0.3,0.8,0.2,1.5-0.2,2.1c-0.1-0.8-0.7-1.3-1.5-1.3c-0.9,0-1.5,0.7-1.5,1.6c0,0.1,0,0.1,0,0.2  c-0.7-0.6-1-1.2-1.1-1.5c0.2-0.4,1.2-1.9,2.4-2.6C71.8,29.7,72.4,30.4,72.7,31.2z M70.4,13.2c0-0.1,0-0.1,0.1-0.2  c0.1-0.1,0.4,0,0.4,0.2l0.3,10c-0.1-0.1-0.3-0.1-0.4-0.1c0,0-0.1,0-0.1,0C70.5,19.1,70.4,14.6,70.4,13.2z M71.3,13.1  c-0.1-0.3-0.3-0.5-0.7-0.5c-0.2,0-0.4,0.1-0.5,0.2C70,12.8,70,12.9,69.9,13c0-0.1,0-0.1,0-0.2c0-0.4,0.3-0.7,0.7-0.7  c0.4,0,0.7,0.3,0.7,0.7C71.3,12.9,71.3,13,71.3,13.1z M70.5,11.1l0.1,0.6c0,0,0,0,0,0c-0.1,0-0.1,0-0.2,0L70.5,11.1z M70.5,23.8  C70.5,23.8,70.5,23.8,70.5,23.8C70.5,23.8,70.5,23.8,70.5,23.8c0-0.1,0.1-0.1,0.2-0.2c0.1,0,0.3,0.1,0.4,0.1l0,0.2c0,0,0,0,0,0.1  l0.1,5.2c-0.1,0-0.3-0.1-0.5-0.1c-0.1,0-0.1-0.1-0.3-0.2V23.8z M62.4,24.6c2.8,0.5,6.9,3.8,8,4.7c-1.2,0.8-2.1,2.1-2.4,2.6  c-3.3-0.9-6.4-2.5-6.5-2.6c0,0,0,0-0.1,0c-2.5-0.4-4.4-0.1-5.1,0c-0.3-2-1.1-3.6-1.4-4.2c0.5-0.2,1-0.6,1.5-1c0,0,0,0,0,0  C56.5,24.2,59.1,24.1,62.4,24.6z M58.7,19.5c-0.1,1.1-0.5,2.8-1.1,2.9c-0.4,0-0.5-0.1-0.6-0.4c-0.1-0.2-0.1-0.4-0.3-0.6  c-0.2-0.2-0.4-0.3-0.6-0.3c-0.3,0-0.5,0.3-0.5,0.3c-1.2,1.3-2.4,1.1-3.5,0.6c-0.9-0.4-0.6-2.1-0.6-2.1l0-0.2c0-0.5,0-0.6,0.1-0.7  c0.6,0,1.3,0.1,2.1,0.1c1,0.1,2,0.2,2.8,0.2c0.3,0,0.6,0,0.8,0c0.5-0.1,1-0.2,1.3-0.2L58.7,19.5z M59.6,18.1  c-0.1,0.2-0.8,0.5-2.3,0.7c-0.2,0-0.5,0-0.8,0c-0.8,0-1.8-0.1-2.8-0.2c-0.9-0.1-1.7-0.1-2.3-0.1c-0.1,0-0.2,0-0.3,0  c0.2-0.2,0.6-0.4,1.2-0.4c0.5,0,1.1,0,1.8,0.1c0.2,0,0.5,0,0.7,0.1c0,0,0,0,0,0c0,0,0,0,0,0c0,0,0,0,0,0c0.5,0,1,0.1,1.4,0.1  c0.4,0,0.8,0,1.2-0.1c0,0,0,0,0,0c0,0,0,0,0,0c0,0,0,0,0,0c0.5-0.1,0.9-0.2,1.2-0.3l0.3-0.1C59.4,17.9,59.6,18.1,59.6,18.1z   M57.8,13.5c0.9,1,1.3,2.5,1.1,3.9l-0.2,0.1c-0.3,0.1-0.6,0.2-0.9,0.3c-0.1-0.8-0.5-3.3-0.8-4.2c-0.3-0.8-0.9-1.6-1.7-2.2  c0.3,0.2,0.6,0.3,0.8,0.5C56.7,12.4,57.3,13,57.8,13.5z M52.9,10.6c0.2,0.1,0.7,0.2,1.4,0.7c1,0.6,1.8,1.5,2.2,2.4  c0.3,0.8,0.7,3.3,0.8,4c-0.2,0-0.4,0-0.6,0c-0.1-0.6-0.2-1.1-0.2-1.6C56,13.9,56,13.4,54.6,12c-0.7-0.7-1.5-1.2-2.2-1.5  C52.6,10.6,52.7,10.6,52.9,10.6z M49.8,10.8c0.3-0.1,0.6-0.1,0.9-0.2c0.3,0,2.2,0.3,3.6,1.7c1.3,1.3,1.3,1.6,1.7,4  c0.1,0.4,0.1,0.9,0.2,1.5c-0.3,0-0.7,0-1,0c0-0.4-0.1-1.2-0.5-2.9c-0.6-2.7-3.8-3.6-5.4-3.9C49.4,10.9,49.6,10.9,49.8,10.8z   M45.9,14.2c0.5-1.2,1.4-2.2,2.6-2.8c0.6,0.1,5.1,0.7,5.8,3.7c0.4,1.8,0.5,2.5,0.5,2.8c-0.2,0-0.3,0-0.5,0c-0.7-0.1-1.3-0.1-1.8-0.1  c-1.2,0.1-1.7,0.6-1.8,0.9c-3.4-0.9-4.8-2.4-5.2-3C45.5,14.8,45.9,14.2,45.9,14.2z M48.4,27.5c-0.9-0.1-1.8,0.1-2.7,0.4  c-1.4,0.4-2.5,0.7-3.6-0.3c-1.6-1.5-1-2.2,0.3-3.8c0.1-0.1,0.2-0.3,0.4-0.4c1.1-1.4,2.2-2,2.6-2.2c0.5,1.2,1.1,2,1.6,2.4  c0.2,0.2,0.4,0.3,0.7,0.4l2.3,1.5c0.9,0.4,1.3,1.6,1.4,2.1C51,27.5,50.1,27.6,48.4,27.5z M51.4,41c-0.3-1.3-0.2-2.5-0.1-4.6  c0.1-1,0.2-2.2,0.2-3.6c0.1-3.2,0-4.4-0.1-4.9c0.1,0,0.2-0.1,0.2-0.1c0,0,0.1,0,0.2,0c0,0.4,0.1,2.9,0.1,4.8c0,0.3,0,0.7-0.1,1.3  c-0.1,2.2-0.3,5.9,0,7.3c0.3,1.3,0.5,2.5,0.5,3c0,0-0.1,0-0.1,0c-0.1,0-0.3,0-0.4,0.1C51.9,43.7,51.8,42.5,51.4,41z M80.9,86.6  C81,86.6,81,86.5,80.9,86.6c0.1,0.1,0.2,0.3,0.1,0.5c0,0.1,0,0.1-0.1,0.2c0,0,0,0,0,0c0,0,0,0,0,0.1c-0.1,0.1-0.2,0.3-0.4,0.4  l-2.9,1.9c-0.2,0.2-0.5,0.2-0.8,0.2c-0.2,0-0.4-0.1-0.5-0.3c0.1-0.1,0.1-0.2,0.2-0.4c0.3-0.9,1.5-1.5,2.6-2.1l0.2-0.1  c0.4-0.2,0.8-0.3,1.2-0.3C80.7,86.6,80.8,86.6,80.9,86.6z M80.8,86.1C80.8,86.1,80.8,86.1,80.8,86.1c-0.1,0-0.1,0-0.2,0  c-0.5,0-0.9,0.1-1.4,0.4L79,86.7c-1.2,0.7-2.5,1.4-2.8,2.4c0,0,0,0.1,0,0.1C73.6,85.1,68,76.4,66.5,74c0.1,0,0.3,0,0.4,0.1l1.5,2.2  c0.1,0.2,0.4,0.4,0.6,0.4c0,0,0.1,0,0.1,0c0.2,0,0.4-0.1,0.6-0.2l1.3-1c0.4-0.3,0.4-0.8,0.2-1.2l-1.5-2c0.1-0.2,0.1-0.4,0.1-0.5  L80.8,86.1z M69.5,72.8l1.3,1.8c0.1,0.2,0.1,0.5-0.1,0.6l-1.3,1c-0.1,0.1-0.2,0.1-0.3,0.1c-0.1,0-0.2-0.1-0.3-0.2l-1.3-2  c0.2,0,0.4-0.1,0.7-0.1C68.7,73.7,69.2,73.3,69.5,72.8z M68.8,68.5c0.5,0.9,0.9,2.6,0.4,3.8c-0.2,0.6-0.6,1.1-1.2,1.2  c-1.8,0.6-2.6-0.4-3.6-1.9c-0.7-1-1.1-2.4-1.2-3c0.9,0,1.5-0.4,1.5-0.4c0,0,0,0,0,0c0,0,0.8-0.8,2.3-1.3c0.2-0.1,0.4-0.2,0.5-0.3  C67.9,67.1,68.5,67.9,68.8,68.5z M67.3,65.8c-0.1,0.3-0.3,0.4-0.5,0.5c-1.5,0.6-2.2,1.3-2.4,1.4c-0.1,0.1-0.7,0.4-1.5,0.3  c0,0,0,0-0.1,0c-0.6,0-1.3-0.3-2.1-1.1c-1.8-2-5.4-10.7-5.5-10.8c0-0.1-0.1-0.1-0.1-0.1c-0.1,0-9.2-3.9-12-6.3  c-1.4-1.2-1.7-3.2-1.6-4.7c0.9,0.5,2.1,0.7,3.3,0.7c2,0,4.2-0.5,5.9-0.8c0.4-0.1,0.7-0.1,1-0.2c0,0,0,0,0,0c0,0,0,0,0,0  c0.2,0.1,6.8,3.7,8.5,5.3c1.7,1.7,6.6,13.3,6.6,13.5C67.1,63.9,67.6,65.1,67.3,65.8z M60.6,49.8c-1.5-1.5-6.4-4.2-8.1-5.1  c1.1-0.2,3.9-0.9,4.4-2.1c0.4,0.3,1.5,1.1,3.4,2.8c2.6,2.4,6,6.1,6,6.2c0,0,0.1,0.1,0.1,0.1c0,0,4.9,1.5,9.5,9.6  c0.2,0.3,0.1,0.8-0.3,1.4c-0.6,1.1-2.1,2.3-3.1,2.3c-0.5,0-2.1-0.9-6.8-5C64.3,56.3,61.8,50.9,60.6,49.8z M74.6,66.9  c-0.6-0.8-1.1-1.3-1.4-1.6c1.1-0.3,2.3-1.4,2.9-2.5c0.2-0.4,0.4-0.8,0.4-1.1c0.5,0.5,1.2,1.1,1.8,1.6c1.5,1.2,1.9,3.2,1.7,4.5  c-0.1,0.9-0.5,1.5-1.1,1.8c-0.2,0.1-0.4,0.1-0.6,0.2c0,0,0,0,0,0C77.3,69.8,76.1,68.9,74.6,66.9z M78.3,70.2  C78.3,70.2,78.3,70.2,78.3,70.2l2.1,2.3c0.2,0.2,0.4,0.3,0.7,0.3c0,0,0,0,0,0c0.3,0,0.5-0.1,0.7-0.3l1.1-1.2c0.3-0.4,0.3-0.9,0-1.2  l-2.2-2.3c0,0,0,0-0.1,0c0-0.2,0-0.4,0-0.6l13.5,13.2c0,0,0,0,0,0c0,0-0.1,0-0.2,0.1c-0.4,0.1-0.9,0.3-1.3,0.6l-0.2,0.1  c-1.1,0.8-2.2,1.7-2.4,2.8c0,0,0,0.1,0,0.1c-3.1-3.7-10.2-11.7-12.1-13.9C78,70.2,78.1,70.2,78.3,70.2z"/></svg>